<svg width="34" height="34" viewBox="0 0 34 34" fill="none" xmlns="http://www.w3.org/2000/svg">
<path d="M29.9524 16.1905H27.5238V9.71429C27.5238 7.93333 26.0667 6.47619 24.2857 6.47619H17.8095V4.04762C17.8095 1.81333 15.9962 0 13.7619 0C11.5276 0 9.71429 1.81333 9.71429 4.04762V6.47619H3.2381C1.45714 6.47619 0.0161905 7.93333 0.0161905 9.71429V15.8667H2.42857C4.84095 15.8667 6.8 17.8257 6.8 20.2381C6.8 22.6505 4.84095 24.6095 2.42857 24.6095H0V30.7619C0 32.5429 1.45714 34 3.2381 34H9.39048V31.5714C9.39048 29.159 11.3495 27.2 13.7619 27.2C16.1743 27.2 18.1333 29.159 18.1333 31.5714V34H24.2857C26.0667 34 27.5238 32.5429 27.5238 30.7619V24.2857H29.9524C32.1867 24.2857 34 22.4724 34 20.2381C34 18.0038 32.1867 16.1905 29.9524 16.1905Z" fill="black"/>
</svg>
